<?xml version="1.0" encoding="UTF-8" standalone="no"?>
<!DOCTYPE svg PUBLIC "-//W3C//DTD SVG 1.1//EN" "http://www.w3.org/Graphics/SVG/1.1/DTD/svg11.dtd">
<svg width="100%" height="100%" viewBox="0 0 1465 771" version="1.1" xmlns="http://www.w3.org/2000/svg" xmlns:xlink="http://www.w3.org/1999/xlink" xml:space="preserve" xmlns:serif="http://www.serif.com/" style="fill-rule:evenodd;clip-rule:evenodd;stroke-linejoin:round;stroke-miterlimit:2;">
    <g transform="matrix(1,0,0,1,-935.234,-949.999)">
        <g transform="matrix(4.16667,0,0,4.16667,2020.83,1007.77)">
            <g id="Ofen-Rahmen" serif:id="Ofen Rahmen">
                <path d="M0,157.272C0,162.168 -3.969,166.136 -8.864,166.136L-166.136,166.136C-171.031,166.136 -175,162.168 -175,157.272L-175,0.001C-175,-4.895 -171.031,-8.864 -166.136,-8.864L-8.864,-8.864C-3.969,-8.864 0,-4.895 0,0.001L0,157.272ZM-4.397,-13.864L-170.603,-13.864C-175.793,-13.864 -180,-9.656 -180,-4.466L-180,161.739C-180,166.929 -175.793,171.136 -170.603,171.136L-4.397,171.136C0.793,171.136 5,166.929 5,161.739L5,-4.466C5,-9.656 0.793,-13.864 -4.397,-13.864" style="fill:rgb(52,52,52);fill-rule:nonzero;"/>
            </g>
        </g>
        <g id="Ofen-innen" serif:id="Ofen innen" transform="matrix(4.16667,0,0,4.16667,0,0)">
            <g transform="matrix(-1,0,0,1,433.5,296.275)">
                <path d="M0,-23.31C6.436,-23.31 11.654,-18.093 11.654,-11.655C11.654,-5.218 6.436,0 0,0C-6.436,0 -11.654,-5.218 -11.654,-11.655C-11.654,-18.093 -6.436,-23.31 0,-23.31" style="fill:rgb(52,52,52);fill-rule:nonzero;"/>
            </g>
            <g transform="matrix(1,0,0,1,354,264.723)">
                <path d="M0,19.434C5.365,19.434 9.716,15.083 9.716,9.717C9.716,4.351 5.365,0 0,0C-5.365,0 -9.716,4.351 -9.716,9.717C-9.716,15.083 -5.365,19.434 0,19.434" style="fill:rgb(52,52,52);fill-rule:nonzero;"/>
            </g>
            <g transform="matrix(-1,0,0,1,362,367.401)">
                <path d="M0,-23.311C6.436,-23.311 11.654,-18.093 11.654,-11.656C11.654,-5.219 6.436,0 0,0C-6.436,0 -11.654,-5.219 -11.654,-11.656C-11.654,-18.093 -6.436,-23.311 0,-23.311" style="fill:rgb(52,52,52);fill-rule:nonzero;"/>
            </g>
            <g transform="matrix(1,0,0,1,433.499,316.125)">
                <path d="M0,8.75C-22.231,8.75 -40.254,-9.273 -40.254,-31.505C-40.254,-53.738 -22.231,-71.76 0,-71.76C22.232,-71.76 40.256,-53.738 40.256,-31.505C40.256,-9.273 22.232,8.75 0,8.75M-71.5,79.875C-93.731,79.875 -111.754,61.853 -111.754,39.62C-111.754,17.388 -93.731,-0.635 -71.5,-0.635C-49.268,-0.635 -31.244,17.388 -31.244,39.62C-31.244,61.853 -49.268,79.875 -71.5,79.875M-79.5,-75.244C-60.965,-75.244 -45.939,-60.219 -45.939,-41.685C-45.939,-23.15 -60.965,-8.125 -79.5,-8.125C-98.034,-8.125 -113.059,-23.15 -113.059,-41.685C-113.059,-60.219 -98.034,-75.244 -79.5,-75.244M36.996,-81.125L-108.994,-81.125C-115.9,-81.125 -121.499,-75.526 -121.499,-68.62L-121.499,77.37C-121.499,84.276 -115.9,89.875 -108.994,89.875L36.996,89.875C43.902,89.875 49.501,84.276 49.501,77.37L49.501,-68.62C49.501,-75.526 43.902,-81.125 36.996,-81.125" style="fill:rgb(52,52,52);fill-rule:nonzero;"/>
            </g>
            <g transform="matrix(1,0,0,1,441.271,356.658)">
                <path d="M0,19.433C-5.365,19.433 -9.716,15.082 -9.716,9.716C-9.716,4.35 -5.365,-0.001 0,-0.001C5.365,-0.001 9.716,4.35 9.716,9.716C9.716,15.082 5.365,19.433 0,19.433M-0.001,-23.843C-18.535,-23.843 -33.56,-8.818 -33.56,9.716C-33.56,28.251 -18.535,43.276 -0.001,43.276C18.534,43.276 33.56,28.251 33.56,9.716C33.56,-8.818 18.534,-23.843 -0.001,-23.843" style="fill:rgb(226,49,52);fill-rule:nonzero;"/>
            </g>
        </g>
        <g transform="matrix(3.94354,0,0,3.82195,49.894,78.9013)">
            <g id="Letters">
                <g>
                    <path d="M302.488,298.139L281.521,287.362C276.663,295.538 273.339,299.626 265.541,299.626C254.802,299.626 250.456,289.096 250.456,275.841C250.456,262.09 254.93,252.055 265.285,252.055C273.467,252.055 276.536,257.134 279.732,265.187L302.232,256.639C296.095,240.287 287.402,231.119 265.413,231.119C241.379,231.119 224.504,247.967 224.504,275.841C224.504,301.484 238.694,320.562 265.285,320.562C286.507,320.562 296.479,309.537 302.488,298.139Z" style="fill:rgb(52,52,52);fill-rule:nonzero;"/>
                    <path d="M595.49,320.835L565.245,264.716L592.401,234.117L562.028,234.117L554.821,242.913C549.029,249.974 541.179,260.009 537.446,265.707C537.704,259.389 537.832,251.585 537.832,244.276L537.832,234.117L512.35,234.117L512.35,320.835L537.832,320.835L537.832,294.696L547.099,283.918L565.889,320.835L595.49,320.835Z" style="fill:rgb(52,52,52);fill-rule:nonzero;"/>
                    <path d="M302.67,416.374L285.861,383.298C295.106,378.962 300.989,370.91 300.989,357.902C300.989,337.338 287.902,329.657 268.212,329.657L230.632,329.657L230.632,416.374L253.564,416.374L253.564,387.138L262.929,387.138L276.616,416.374L302.67,416.374ZM277.817,358.522C277.817,364.716 274.815,368.184 267.251,368.184L253.564,368.184L253.564,349.23L267.612,349.23C274.935,349.23 277.817,353.071 277.817,358.522Z" style="fill:rgb(52,52,52);fill-rule:nonzero;"/>
                    <path d="M595.983,416.374L595.983,329.657L574.852,329.657L564.526,352.823C559.244,364.592 555.402,374.007 553.961,378.962C552.64,374.131 548.438,363.972 543.395,352.823L533.07,329.657L511.699,329.657L511.699,416.374L533.55,416.374L533.55,395.686C533.55,387.138 533.43,379.334 533.07,372.644C535.591,379.086 539.914,389.12 542.795,395.315L553.841,419.348L564.887,395.315C567.768,389.12 572.09,379.086 574.612,372.644C574.251,379.334 574.131,387.138 574.131,395.686L574.131,416.374L595.983,416.374Z" style="fill:rgb(52,52,52);fill-rule:nonzero;"/>
                </g>
            </g>
        </g>
    </g>
</svg>
